P3
100 50
255
0 0 0 0 0 0 0 0 0 0 0 0 0 0 0 0 0 0 0 0 0 0 0 0 0 0 0 0 0 0 0 0 0 0 0
0 0 0 0 0 0 0 0 0 0 0 0 0 0 0 0 0 0 0 0 0 0 0 0 0 0 0 0 0 0 0 0 0 0 0
0 0 0 0 0 0 0 0 0 0 0 0 0 0 0 0 0 0 0 0 0 0 0 0 0 0 0 0 0 0 0 0 0 0 0
0 0 0 0 0 0 0 0 0 0 0 0 0 0 0 0 0 0 0 0 0 0 0 0 0 0 0 0 0 0 0 0 0 0 0
0 0 0 0 0 0 0 0 0 0 0 0 0 0 0 0 0 0 0 0 0 0 0 0 0 0 0 0 0 0 0 0 0 0 0
0 0 0 0 0 0 0 0 0 0 0 0 0 0 0 0 0 0 0 0 0 0 0 0 0 0 0 0 0 0 0 0 0 0 0
0 0 0 0 0 0 0 0 0 0 0 0 0 0 0 0 0 0 0 0 0 0 0 0 0 0 0 0 0 0 0 0 0 0 0
0 0 0 0 0 0 0 0 0 0 0 0 0 0 0 0 0 0 0 0 0 0 0 0 0 0 0 0 0 0 0 0 0 0 0
0 0 0 0 0 0 0 0 0 0 0 0 0 0 0 0 0 0 0 0
0 0 0 0 0 0 0 0 0 0 0 0 0 0 0 0 0 0 0 0 0 0 0 0 0 0 0 0 0 0 0 0 0 0 0
0 0 0 0 0 0 0 0 0 0 0 0 0 0 0 0 0 0 0 0 0 0 0 0 0 0 0 0 0 0 0 0 0 0 0
0 0 0 0 0 0 0 0 0 0 0 0 0 0 0 0 0 0 0 0 0 0 0 0 0 0 0 0 0 0 0 0 0 0 0
0 0 0 0 0 0 0 0 0 0 0 0 0 0 0 0 0 0 0 0 0 0 0 0 0 0 0 0 0 0 0 0 0 0 0
0 0 0 0 0 0 0 0 0 0 0 0 0 0 0 0 0 0 0 0 0 0 0 0 0 0 0 0 0 0 0 0 0 0 0
0 0 0 0 0 0 0 0 0 0 0 0 0 0 0 0 0 0 0 0 0 0 0 0 0 0 0 0 0 0 0 0 0 0 0
0 0 0 0 0 0 0 0 0 0 0 0 0 0 0 0 0 0 0 0 0 0 0 0 0 0 0 0 0 0 0 0 0 0 0
0 0 0 0 0 0 0 0 0 0 0 0 0 0 0 0 0 0 0 0 0 0 0 0 0 0 0 0 0 0 0 0 0 0 0
0 0 0 0 0 0 0 0 0 0 0 0 0 0 0 0 0 0 0 0
0 0 0 0 0 0 0 0 0 0 0 0 0 0 0 0 0 0 0 0 0 0 0 0 0 0 0 0 0 0 0 0 0 0 0
0 0 0 0 0 0 0 0 0 0 0 0 0 0 0 0 0 0 0 0 0 0 0 0 0 0 0 0 0 0 0 0 0 0 0
0 0 0 0 0 0 0 0 0 0 0 0 0 0 0 0 0 0 0 0 0 0 0 0 0 0 0 0 0 0 0 0 0 0 0
0 0 0 0 0 0 0 0 0 0 0 0 0 0 0 0 0 0 0 0 0 0 0 0 0 0 0 0 0 0 0 0 0 0 0
0 0 0 0 0 0 0 0 0 0 0 0 0 0 0 0 0 0 0 0 0 0 0 0 0 0 0 0 0 0 0 0 0 0 0
0 0 0 0 0 0 0 0 0 0 0 0 0 0 0 0 0 0 0 0 0 0 0 0 0 0 0 0 0 0 0 0 0 0 0
0 0 0 0 0 0 0 0 0 0 0 0 0 0 0 0 0 0 0 0 0 0 0 0 0 0 0 0 0 0 0 0 0 0 0
0 0 0 0 0 0 0 0 0 0 0 0 0 0 0 0 0 0 0 0 0 0 0 0 0 0 0 0 0 0 0 0 0 0 0
0 0 0 0 0 0 0 0 0 0 0 0 0 0 0 0 0 0 0 0
0 0 0 0 0 0 0 0 0 0 0 0 0 0 0 0 0 0 0 0 0 0 0 0 0 0 0 0 0 0 0 0 0 0 0
0 0 0 0 0 0 0 0 0 0 0 0 0 0 0 0 0 0 0 0 0 0 0 0 0 0 0 0 0 0 0 0 0 0 0
0 0 0 0 0 0 0 0 0 0 0 0 0 0 0 0 0 0 0 0 0 0 0 0 0 0 0 0 0 0 0 0 0 0 0
0 0 0 0 0 0 0 0 0 0 0 0 0 0 0 0 0 0 0 0 0 0 0 0 0 0 0 0 0 0 0 0 0 0 0
0 0 0 0 0 0 0 0 0 0 0 0 0 0 0 0 0 0 0 0 0 0 0 0 0 0 0 0 0 0 0 0 0 0 0
0 0 0 0 0 0 0 0 0 0 0 0 0 0 0 0 0 0 0 0 0 0 0 0 0 0 0 0 0 0 0 0 0 0 0
0 0 0 0 0 0 0 0 0 0 0 0 0 0 0 0 0 0 0 0 0 0 0 0 0 0 0 0 0 0 0 0 0 0 0
0 0 0 0 0 0 0 0 0 0 0 0 0 0 0 0 0 0 0 0 0 0 0 0 0 0 0 0 0 0 0 0 0 0 0
0 0 0 0 0 0 0 0 0 0 0 0 0 0 0 0 0 0 0 0
0 0 0 0 0 0 0 0 0 0 0 0 0 0 0 0 0 0 0 0 0 0 0 0 0 0 0 0 0 0 0 0 0 0 0
0 0 0 0 0 0 0 0 0 0 0 0 0 0 0 0 0 0 0 0 0 0 0 0 0 0 0 0 0 0 0 0 0 0 0
0 0 0 0 0 0 0 0 0 0 0 0 0 0 0 0 0 0 0 0 0 0 0 0 0 0 0 0 0 0 0 0 0 0 0
0 0 0 0 0 0 0 0 0 0 0 0 0 0 0 0 0 0 0 0 0 0 0 0 0 0 0 0 0 0 0 0 0 0 0
0 0 0 0 0 0 0 0 0 0 0 0 0 0 0 0 0 0 0 0 0 0 0 0 0 0 0 0 0 0 0 0 0 0 0
0 0 0 0 0 0 0 0 0 0 0 0 0 0 0 0 0 0 0 0 0 0 0 0 0 0 0 0 0 0 0 0 0 0 0
0 0 0 0 0 0 0 0 0 0 0 0 0 0 0 0 0 0 0 0 0 0 0 0 0 0 0 0 0 0 0 0 0 0 0
0 0 0 0 0 0 0 0 0 0 0 0 0 0 0 0 0 0 0 0 0 0 0 0 0 0 0 0 0 0 0 0 0 0 0
0 0 0 0 0 0 0 0 0 0 0 0 0 0 0 0 0 0 0 0
0 0 0 0 0 0 0 0 0 0 0 0 0 0 0 0 0 0 0 0 0 0 0 0 0 0 0 0 0 0 0 0 0 0 0
0 0 0 0 0 0 0 0 0 0 0 0 0 0 0 0 0 0 0 0 0 0 0 0 0 0 0 0 0 0 0 0 0 0 0
0 0 0 0 0 0 0 0 0 0 0 0 0 0 0 0 0 0 0 0 0 0 0 0 0 0 0 0 0 0 0 0 0 0 0
0 0 0 0 0 0 0 0 0 0 0 0 0 0 0 0 0 0 0 0 0 0 0 0 0 0 0 0 0 0 0 0 0 0 0
0 0 0 0 0 0 0 0 0 0 0 0 0 0 0 0 0 0 0 0 0 0 0 0 0 0 0 0 0 0 0 0 0 0 0
0 0 0 0 0 0 0 0 0 0 0 0 0 0 0 0 0 0 0 0 0 0 0 0 0 0 0 0 0 0 0 0 0 0 0
0 0 0 0 0 0 0 0 0 0 0 0 0 0 0 0 0 0 0 0 0 0 0 0 0 0 0 0 0 0 0 0 0 0 0
0 0 0 0 0 0 0 0 0 0 0 0 0 0 0 0 0 0 0 0 0 0 0 0 0 0 0 0 0 0 0 0 0 0 0
0 0 0 0 0 0 0 0 0 0 0 0 0 0 0 0 0 0 0 0
0 0 0 0 0 0 0 0 0 0 0 0 0 0 0 0 0 0 0 0 0 0 0 0 0 0 0 0 0 0 0 0 0 0 0
0 0 0 0 0 0 0 0 0 0 0 0 0 0 0 0 0 0 0 0 0 0 0 0 0 0 0 0 0 0 0 0 0 0 0
0 0 0 0 0 0 0 0 0 0 0 0 0 0 0 0 0 0 0 0 0 0 0 0 0 0 0 0 0 0 0 0 0 0 0
0 0 0 0 0 0 0 0 0 0 0 0 0 0 0 0 0 0 0 0 0 0 0 0 0 0 0 0 0 0 0 0 0 0 0
0 0 0 0 0 0 0 0 0 0 0 0 0 0 0 0 0 0 0 0 0 0 0 0 0 0 0 0 0 0 0 0 0 0 0
0 0 0 0 0 0 0 0 0 0 0 0 0 0 0 0 0 0 0 0 0 0 0 0 0 0 0 0 0 0 0 0 0 0 0
0 0 0 0 0 0 0 0 0 0 0 0 0 0 0 0 0 0 0 0 0 0 0 0 0 0 0 0 0 0 0 0 0 0 0
0 0 0 0 0 0 0 0 0 0 0 0 0 0 0 0 0 0 0 0 0 0 0 0 0 0 0 0 0 0 0 0 0 0 0
0 0 0 0 0 0 0 0 0 0 0 0 0 0 0 0 0 0 0 0
0 0 0 0 0 0 0 0 0 0 0 0 0 0 0 0 0 0 0 0 0 0 0 0 0 0 0 0 0 0 0 0 0 0 0
0 0 0 0 0 0 0 0 0 0 0 0 0 0 0 0 0 0 0 0 0 0 0 0 0 0 0 0 0 0 0 0 0 0 0
0 0 0 0 0 0 0 0 0 0 0 0 0 0 0 0 0 0 0 0 0 0 0 0 0 0 0 0 0 0 0 0 0 0 0
0 0 0 0 0 0 0 0 0 0 0 0 0 0 0 0 0 0 0 0 0 0 0 0 0 0 0 0 0 0 0 0 0 0 0
0 0 0 0 0 0 0 0 0 0 0 0 0 0 0 0 0 0 0 0 0 0 0 0 0 0 0 0 0 0 0 0 0 0 0
0 0 0 0 0 0 0 0 0 0 0 0 0 0 0 0 0 0 0 0 0 0 0 0 0 0 0 0 0 0 0 0 0 0 0
0 0 0 0 0 0 0 0 0 0 0 0 0 0 0 0 0 0 0 0 0 0 0 0 0 0 0 0 0 0 0 0 0 0 0
0 0 0 0 0 0 0 0 0 0 0 0 0 0 0 0 0 0 0 0 0 0 0 0 0 0 0 0 0 0 0 0 0 0 0
0 0 0 0 0 0 0 0 0 0 0 0 0 0 0 0 0 0 0 0
0 0 0 0 0 0 0 0 0 0 0 0 0 0 0 0 0 0 0 0 0 0 0 0 0 0 0 0 0 0 0 0 0 0 0
0 0 0 0 0 0 0 0 0 0 0 0 0 0 0 0 0 0 0 0 0 0 0 0 0 0 0 0 0 0 0 0 0 0 0
0 0 0 0 0 0 0 0 0 0 0 0 0 0 0 0 0 0 0 0 0 0 0 0 0 0 0 0 0 0 0 0 0 0 0
0 0 0 0 0 0 0 0 0 0 0 0 0 0 0 15 145 73 14 140 70 14 133 67 13 122 61
0 0 0 0 0 0 0 0 0 0 0 0 0 0 0 0 0 0 0 0 0 0 0 0 0 0 0 0 0 0 0 0 0 0 0
0 0 0 0 0 0 0 0 0 0 0 0 0 0 0 0 0 0 0 0 0 0 0 0 0 0 0 0 0 0 0 0 0 0 0
0 0 0 0 0 0 0 0 0 0 0 0 0 0 0 0 0 0 0 0 0 0 0 0 0 0 0 0 0 0 0 0 0 0 0
0 0 0 0 0 0 0 0 0 0 0 0 0 0 0 0 0 0 0 0 0 0 0 0 0 0 0 0 0 0 0 0 0 0 0
0 0 0 0 0 0 0 0 0 0 0 0 0 0 0 0 0 0 0 0 0 0 0 0 0 0 0 0
0 0 0 0 0 0 0 0 0 0 0 0 0 0 0 0 0 0 0 0 0 0 0 0 0 0 0 0 0 0 0 0 0 0 0
0 0 0 0 0 0 0 0 0 0 0 0 0 0 0 0 0 0 0 0 0 0 0 0 0 0 0 0 0 0 0 0 0 0 0
0 0 0 0 0 0 0 0 0 0 0 0 0 0 0 0 0 0 0 0 0 0 0 0 0 0 0 0 0 0 0 0 0 0 0
0 0 0 18 172 86 18 173 87 18 171 86 17 167 84 17 162 81 16 156 78 15
149 75 15 141 71 14 132 66 13 121 61 11 109 55 10 92 46 0 0 0 0 0 0 0
0 0 0 0 0 0 0 0 0 0 0 0 0 0 0 0 0 0 0 0 0 0 0 0 0 0 0 0 0 0 0 0 0 0 0
0 0 0 0 0 0 0 0 0 0 0 0 0 0 0 0 0 0 0 0 0 0 0 0 0 0 0 0 0 0 0 0 0 0 0
0 0 0 0 0 0 0 0 0 0 0 0 0 0 0 0 0 0 0 0 0 0 0 0 0 0 0 0 0 0 0 0 0 0 0
0 0 0 0 0 0 0 0 0 0 0 0 0 0 0 0 0 0 0 0 0 0 0 0 0 0 0 0 0 0 0 0 0 0 0
0 0 0 0 0 0 0 0 0
0 0 0 0 0 0 0 0 0 0 0 0 0 0 0 0 0 0 0 0 0 0 0 0 0 0 0 0 0 0 0 0 0 0 0
0 0 0 0 0 0 0 0 0 0 0 0 0 0 0 0 0 0 0 0 0 0 0 0 0 0 0 0 0 0 0 0 0 0 0
0 0 0 0 0 0 0 0 0 0 0 0 0 0 0 0 0 0 0 0 0 0 0 0 0 0 0 0 0 0 0 0 19
184 92 19 186 93 19 185 93 19 182 91 18 178 89 18 173 87 17 168 84 17
161 81 16 155 78 15 147 74 14 139 70 13 130 65 12 120 60 11 108 54 10
94 47 8 75 38 0 0 0 0 0 0 0 0 0 0 0 0 0 0 0 0 0 0 0 0 0 0 0 0 0 0 0 0
0 0 0 0 0 0 0 0 0 0 0 0 0 0 0 0 0 0 0 0 0 0 0 0 0 0 0 0 0 0 0 0 0 0 0
0 0 0 0 0 0 0 0 0 0 0 0 0 0 0 0 0 0 0 0 0 0 0 0 0 0 0 0 0 0 0 0 0 0 0
0 0 0 0 0 0 0 0 0 0 0 0 0 0 0 0 0 0 0 0 0 0 0 0 0 0 0 0 0 0 0 0 0 0 0
0 0 0 0 0 0 0 0 0 0 0 0 0 0 0 0 0
0 0 0 0 0 0 0 0 0 0 0 0 0 0 0 0 0 0 0 0 0 0 0 0 0 0 0 0 0 0 0 0 0 0 0
0 0 0 0 0 0 0 0 0 0 0 0 0 0 0 0 0 0 0 0 0 0 0 0 0 0 0 0 0 0 0 0 0 0 0
0 0 0 0 0 0 0 0 0 0 0 0 0 0 0 0 0 0 0 0 0 0 0 0 0 0 19 184 92 20 193
97 20 194 97 20 192 96 19 189 95 19 186 93 19 181 91 18 176 88 17 170
85 17 164 82 16 157 79 15 150 75 15 142 71 14 134 67 13 124 62 12 114
57 11 103 52 9 89 45 8 73 37 0 0 0 0 0 0 0 0 0 0 0 0 0 0 0 0 0 0 0 0
0 0 0 0 0 0 0 0 0 0 0 0 0 0 0 0 0 0 0 0 0 0 0 0 0 0 0 0 0 0 0 0 0 0 0
0 0 0 0 0 0 0 0 0 0 0 0 0 0 0 0 0 0 0 0 0 0 0 0 0 0 0 0 0 0 0 0 0 0 0
0 0 0 0 0 0 0 0 0 0 0 0 0 0 0 0 0 0 0 0 0 0 0 0 0 0 0 0 0 0 0 0 0 0 0
0 0 0 0 0 0 0 0 0 0 0 0 0 0 0 0 0 0 0 0 0 0
0 0 0 0 0 0 0 0 0 0 0 0 0 0 0 0 0 0 0 0 0 0 0 0 0 0 0 0 0 0 0 0 0 0 0
0 0 0 0 0 0 0 0 0 0 0 0 0 0 0 0 0 0 0 0 0 0 0 0 0 0 0 0 0 0 0 0 0 0 0
0 0 0 0 0 0 0 0 0 0 0 0 0 0 0 0 0 0 0 0 0 0 0 20 192 96 20 198 99 20
199 100 20 197 99 20 195 98 20 191 96 19 187 94 19 182 91 18 177 89
18 172 86 17 165 83 16 159 80 16 152 76 15 144 72 14 136 68 13 127 64
12 117 59 11 107 54 10 95 48 9 82 41 7 65 33 4 40 20 0 0 0 0 0 0 0 0
0 0 0 0 0 0 0 0 0 0 0 0 0 0 0 0 0 0 0 0 0 0 0 0 0 0 0 0 0 0 0 0 0 0 0
0 0 0 0 0 0 0 0 0 0 0 0 0 0 0 0 0 0 0 0 0 0 0 0 0 0 0 0 0 0 0 0 0 0 0
0 0 0 0 0 0 0 0 0 0 0 0 0 0 0 0 0 0 0 0 0 0 0 0 0 0 0 0 0 0 0 0 0 0 0
0 0 0 0 0 0 0 0 0 0 0 0 0 0 0 0 0 0 0 0 0 0 0 0 0 0 0 0
0 0 0 0 0 0 0 0 0 0 0 0 0 0 0 0 0 0 0 0 0 0 0 0 0 0 0 0 0 0 0 0 0 0 0
0 0 0 0 0 0 0 0 0 0 0 0 0 0 0 0 0 0 0 0 0 0 0 0 0 0 0 0 0 0 0 0 0 0 0
0 0 0 0 0 0 0 0 0 0 0 0 0 0 0 0 0 0 0 0 20 194 97 21 201 101 21 202
101 21 201 101 20 199 100 20 196 98 20 192 96 19 187 94 19 183 92 18
177 89 18 172 86 17 165 83 16 159 80 16 152 76 15 144 72 14 136 68 13
128 64 12 119 60 11 109 55 10 98 49 9 86 43 8 72 36 6 55 28 3 28 14 0
0 0 0 0 0 0 0 0 0 0 0 0 0 0 0 0 0 0 0 0 0 0 0 0 0 0 0 0 0 0 0 0 0 0 0
0 0 0 0 0 0 0 0 0 0 0 0 0 0 0 0 0 0 0 0 0 0 0 0 0 0 0 0 0 0 0 0 0 0 0
0 0 0 0 0 0 0 0 0 0 0 0 0 0 0 0 0 0 0 0 0 0 0 0 0 0 0 0 0 0 0 0 0 0 0
0 0 0 0 0 0 0 0 0 0 0 0 0 0 0 0 0 0 0 0 0 0 0 0 0 0 0 0 0 0 0 0
0 0 0 0 0 0 0 0 0 0 0 0 0 0 0 0 0 0 0 0 0 0 0 0 0 0 0 0 0 0 0 0 0 0 0
0 0 0 0 0 0 0 0 0 0 0 0 0 0 0 0 0 0 0 0 0 0 0 0 0 0 0 0 0 0 0 0 0 0 0
0 0 0 0 0 0 0 0 0 0 0 0 0 0 0 0 0 20 192 96 21 202 101 21 204 102 21
203 102 21 201 101 20 199 100 20 195 98 20 191 96 19 187 94 19 182 91
18 176 88 18 171 86 17 165 83 16 158 79 16 151 76 15 144 72 14 136 68
13 128 64 12 119 60 11 109 55 10 99 50 9 88 44 8 75 38 6 60 30 5 42
21 3 26 13 0 0 0 0 0 0 0 0 0 0 0 0 0 0 0 0 0 0 0 0 0 0 0 0 0 0 0 0 0
0 0 0 0 0 0 0 0 0 0 0 0 0 0 0 0 0 0 0 0 0 0 0 0 0 0 0 0 0 0 0 0 0 0 0
0 0 0 0 0 0 0 0 0 0 0 0 0 0 0 0 0 0 0 0 0 0 0 0 0 0 0 0 0 0 0 0 0 0 0
0 0 0 0 0 0 0 0 0 0 0 0 0 0 0 0 0 0 0 0 0 0 0 0 0 0 0 0 0 0 0 0 0 0 0
0
0 0 0 0 0 0 0 0 0 0 0 0 0 0 0 0 0 0 0 0 0 0 0 0 0 0 0 0 0 0 0 0 0 0 0
0 0 0 0 0 0 0 0 0 0 0 0 0 0 0 0 0 0 0 0 0 0 0 0 0 0 0 0 0 0 0 0 0 0 0
0 0 0 0 0 0 0 0 0 0 0 0 0 0 0 0 0 21 201 101 21 204 102 21 204 102 21
203 102 21 201 101 20 198 99 20 194 97 19 190 95 19 185 93 18 180 90
18 175 88 17 169 85 17 163 82 16 157 79 15 150 75 15 143 72 14 135 68
13 127 64 12 118 59 11 109 55 10 99 50 9 88 44 8 76 38 7 63 32 5 47
24 3 27 14 0 0 0 0 0 0 0 0 0 0 0 0 0 0 0 0 0 0 0 0 0 0 0 0 0 0 0 0 0
0 0 0 0 0 0 0 0 0 0 0 0 0 0 0 0 0 0 0 0 0 0 0 0 0 0 0 0 0 0 0 0 0 0 0
0 0 0 0 0 0 0 0 0 0 0 0 0 0 0 0 0 0 0 0 0 0 0 0 0 0 0 0 0 0 0 0 0 0 0
0 0 0 0 0 0 0 0 0 0 0 0 0 0 0 0 0 0 0 0 0 0 0 0 0 0 0 0 0 0 0 0 0 0 0
0
28 28 28 28 28 28 28 28 28 28 28 28 28 28 28 28 28 28 28 28 28 28 28
28 28 28 28 28 28 28 28 28 28 28 28 28 28 28 28 28 28 28 28 28 28 28
28 28 28 28 28 28 28 28 28 28 28 28 28 28 28 28 28 28 28 28 28 28 28
28 28 28 28 28 28 28 28 28 28 28 28 28 28 28 20 196 98 21 203 102 21
204 102 21 204 102 21 202 101 20 199 100 20 196 98 20 192 96 19 188
94 19 184 92 18 178 89 18 173 87 17 167 84 17 161 81 16 155 78 15 148
74 15 141 71 14 133 67 13 125 63 12 117 59 11 108 54 10 98 49 9 88 44
8 76 38 7 64 32 5 49 25 4 32 16 3 26 13 28 28 28 28 28 28 28 28 28 28
28 28 28 28 28 28 28 28 28 28 28 28 28 28 28 28 28 28 28 28 28 28 28
28 28 28 28 28 28 28 28 28 28 28 28 28 28 28 28 28 28 28 28 28 28 28
28 28 28 28 28 28 28 28 28 28 28 28 28 28 28 28 28 28 28 28 28 28 28
28 28 28 28 28 28 28 28 28 28 28 28 28 28 28 28 28 28 28 28 28 28 28
28 28 28 28 28 28 28 28 28 28 28 28 28 28 28 28 28 28 28 28 28 28 28
28 28 28 28 28 28 28
43 43 43 43 43 43 43 43 43 43 43 43 43 43 43 43 43 43 43 43 43 44 44
44 44 44 44 44 44 44 44 44 44 44 44 44 44 44 44 44 44 44 44 44 44 44
44 44 44 44 44 44 44 44 44 44 44 44 44 44 44 44 44 44 44 44 44 44 44
44 44 44 44 44 44 44 44 44 45 45 45 19 181 91 20 199 100 21 203 102
21 203 102 21 202 101 20 200 100 20 197 99 20 194 97 19 190 95 19 186
93 19 181 91 18 176 88 18 171 86 17 165 83 16 159 80 16 153 77 15 146
73 14 139 70 14 131 66 13 123 62 12 115 58 11 106 53 10 97 49 9 87 44
8 76 38 7 64 32 5 50 25 4 34 17 3 26 13 45 45 45 45 45 45 45 45 45 44
44 44 44 44 44 44 44 44 44 44 44 44 44 44 44 44 44 44 44 44 44 44 44
44 44 44 44 44 44 44 44 44 44 44 44 44 44 44 44 44 44 44 44 44 44 44
44 44 44 44 44 44 44 44 44 44 43 43 43 43 43 43 43 43 43 43 43 43 43
43 43 43 43 43 43 43 43 43 43 43 43 43 43 43 43 43 43 43 43 43 43 43
43 43 43 43 43 43 42 42 42 42 42 42 42 42 42 42 42 42 42 42 42 42 42
42 42 42 42 42 42 42
58 58 58 58 58 58 58 58 58 58 58 58 58 58 58 58 58 58 59 59 59 59 59
59 59 59 59 59 59 59 59 59 59 59 59 59 59 59 59 59 59 59 59 59 59 59
59 59 59 59 59 59 59 59 60 60 60 60 60 60 60 60 60 60 60 60 60 60 60
60 60 60 60 60 60 60 60 60 60 60 60 20 192 96 20 199 100 21 201 101
21 201 101 20 200 100 20 198 99 20 195 98 20 191 96 26 194 100 35 199
108 20 180 91 18 173 87 17 168 84 17 162 81 16 156 78 15 150 75 15
143 72 14 136 68 13 129 65 13 121 61 12 113 57 11 104 52 10 95 48 9
85 43 8 74 37 7 62 31 5 49 25 4 34 17 3 26 13 3 26 13 59 59 59 59 59
59 59 59 59 59 59 59 59 59 59 59 59 59 59 59 59 59 59 59 59 59 59 58
58 58 58 58 58 58 58 58 58 58 58 58 58 58 58 58 58 58 58 58 58 58 58
58 58 58 57 57 57 57 57 57 57 57 57 57 57 57 57 57 57 57 57 57 57 57
57 57 57 57 56 56 56 56 56 56 56 56 56 56 56 56 56 56 56 56 56 56 56
56 56 56 56 56 55 55 55 55 55 55 55 55 55 55 55 55 55 55 55 55 55 55
55 55 55 54 54 54 54 54 54
72 72 72 72 72 72 72 72 72 72 72 72 73 73 73 73 73 73 73 73 73 73 73
73 73 73 73 73 73 73 73 73 73 73 73 73 73 73 73 73 73 73 73 73 73 74
74 74 74 74 74 74 74 74 74 74 74 74 74 74 74 74 74 74 74 74 74 74 74
74 74 74 74 74 74 74 74 74 74 74 74 20 193 97 20 198 99 20 199 100 20
199 100 20 197 99 20 195 98 20 192 96 21 190 96 66 231 140 74 236 146
21 178 91 17 170 85 17 165 83 16 159 80 16 153 77 15 147 74 14 140 70
14 133 67 13 126 63 12 118 59 11 110 55 11 101 51 10 92 46 9 82 41 8
72 36 6 60 30 5 48 24 4 33 17 3 26 13 3 26 13 72 72 72 72 72 72 72 72
72 72 72 72 72 72 72 72 72 72 71 71 71 71 71 71 71 71 71 71 71 71 71
71 71 71 71 71 70 70 70 70 70 70 70 70 70 70 70 70 70 70 70 70 70 70
70 70 70 69 69 69 69 69 69 69 69 69 69 69 69 69 69 69 68 68 68 68 68
68 68 68 68 68 68 68 68 68 68 68 68 68 67 67 67 67 67 67 67 67 67 67
67 67 67 67 67 66 66 66 66 66 66 66 66 66 66 66 66 66 66 66 66 66 66
65 65 65 65 65 65
85 85 85 85 85 85 85 85 85 86 86 86 86 86 86 86 86 86 86 86 86 86 86
86 86 86 86 86 86 86 86 86 86 86 86 86 86 86 86 86 86 86 86 86 86 86
86 86 86 86 86 86 86 86 87 87 87 87 87 87 87 87 87 87 87 87 87 87 87
87 87 87 87 87 87 87 87 87 18 176 88 20 191 96 20 195 98 20 196 98 20
195 98 20 194 97 20 191 96 19 188 94 20 186 94 37 199 109 30 188 100
18 172 86 17 166 83 17 161 81 16 155 78 15 149 75 15 143 72 14 137 69
13 130 65 13 122 61 12 115 58 11 107 54 10 98 49 9 89 45 8 79 40 7 69
35 6 58 29 5 45 23 4 31 16 3 26 13 3 26 13 83 83 83 83 83 83 83 83 83
83 83 83 83 83 83 83 83 83 82 82 82 82 82 82 82 82 82 82 82 82 82 82
82 81 81 81 81 81 81 81 81 81 81 81 81 81 81 81 80 80 80 80 80 80 80
80 80 80 80 80 80 80 80 79 79 79 79 79 79 79 79 79 79 79 79 78 78 78
78 78 78 78 78 78 78 78 78 78 78 78 77 77 77 77 77 77 77 77 77 77 77
77 76 76 76 76 76 76 76 76 76 76 76 76 76 76 76 75 75 75 75 75 75 75
75 75 75 75 75
97 97 97 97 97 97 97 97 97 97 97 97 97 97 97 97 97 97 98 98 98 98 98
98 98 98 98 98 98 98 98 98 98 98 98 98 98 98 98 98 98 98 98 98 98 98
98 98 98 98 98 98 98 98 98 98 98 98 98 98 98 98 98 98 98 98 98 98 98
98 98 98 98 98 98 98 98 98 18 178 89 19 189 95 20 192 96 20 193 97 20
192 96 19 190 95 19 187 94 19 184 92 19 181 91 19 177 89 18 173 87 17
168 84 17 163 82 16 157 79 16 152 76 15 146 73 14 139 70 14 133 67 13
126 63 12 119 60 12 111 56 11 103 52 10 95 48 9 86 43 8 76 38 7 66 33
6 55 28 5 42 21 3 29 15 3 26 13 3 26 13 3 26 13 93 93 93 93 93 93 92
92 92 92 92 92 92 92 92 92 92 92 92 92 92 91 91 91 91 91 91 91 91 91
91 91 91 90 90 90 90 90 90 90 90 90 90 90 90 89 89 89 89 89 89 89 89
89 89 89 89 88 88 88 88 88 88 88 88 88 88 88 88 87 87 87 87 87 87 87
87 87 87 87 87 86 86 86 86 86 86 86 86 86 86 86 86 85 85 85 85 85 85
85 85 85 85 85 85 84 84 84 84 84 84 84 84 84 84 84 84 83 83 83 83 83
83 83 83 83
108 108 108 108 108 108 108 108 108 108 108 108 108 108 108 108 108
108 108 108 108 108 108 108 108 108 108 108 108 108 108 108 108 108
108 108 108 108 108 108 108 108 108 108 108 108 108 108 108 108 108
108 108 108 108 108 108 108 108 108 107 107 107 107 107 107 107 107
107 107 107 107 107 107 107 107 107 107 18 176 88 19 185 93 19 188 94
19 188 94 19 188 94 19 186 93 19 183 92 18 180 90 18 176 88 18 172 86
17 168 84 17 163 82 16 158 79 16 153 77 15 147 74 15 142 71 14 135 68
13 129 65 13 122 61 12 115 58 11 107 54 10 99 50 10 91 46 9 82 41 8
72 36 7 62 31 6 51 26 4 39 20 3 26 13 3 26 13 3 26 13 3 26 13 101 101
101 101 101 101 101 101 101 100 100 100 100 100 100 100 100 100 100
100 100 99 99 99 99 99 99 99 99 99 99 99 99 98 98 98 98 98 98 98 98
98 98 98 98 97 97 97 97 97 97 97 97 97 97 97 97 96 96 96 96 96 96 96
96 96 95 95 95 95 95 95 95 95 95 95 95 95 94 94 94 94 94 94 94 94 94
93 93 93 93 93 93 93 93 93 93 93 93 92 92 92 92 92 92 92 92 92 92 92
92 91 91 91 91 91 91 91 91 91 90 90 90 90 90 90
117 117 117 117 117 117 117 117 117 117 117 117 117 117 117 117 117
117 117 117 117 117 117 117 117 117 117 117 117 117 117 117 117 117
117 117 117 117 117 117 117 117 116 116 116 116 116 116 116 116 116
116 116 116 116 116 116 116 116 116 116 116 116 116 116 116 116 116
116 116 116 116 115 115 115 115 115 115 18 173 87 19 181 91 19 183 92
19 184 92 19 183 92 19 181 91 18 179 90 18 175 88 18 172 86 17 168 84
17 164 82 16 159 80 16 154 77 15 149 75 15 143 72 14 137 69 14 131 66
13 124 62 12 117 59 11 110 55 11 103 52 10 95 48 9 86 43 8 77 39 7 68
34 6 58 29 5 47 24 4 35 18 3 26 13 3 26 13 3 26 13 3 26 13 108 108
108 108 108 108 108 108 108 108 108 108 107 107 107 107 107 107 107
107 107 106 106 106 106 106 106 106 106 106 106 106 106 105 105 105
105 105 105 105 105 105 104 104 104 104 104 104 104 104 104 104 104
104 103 103 103 103 103 103 103 103 103 102 102 102 102 102 102 102
102 102 102 102 102 101 101 101 101 101 101 101 101 101 100 100 100
100 100 100 100 100 100 99 99 99 99 99 99 99 99 99 99 99 99 98 98 98
98 98 98 98 98 98 97 97 97 97 97 97 97 97 97 97 97 97
125 125 125 125 125 125 125 125 125 125 125 125 125 125 125 125 125
125 125 125 125 125 125 125 124 124 124 124 124 124 124 124 124 124
124 124 124 124 124 124 124 124 124 124 124 124 124 124 124 124 124
124 124 124 123 123 123 123 123 123 123 123 123 123 123 123 123 123
123 123 123 123 122 122 122 122 122 122 17 167 84 18 176 88 18 178 89
18 179 90 18 178 89 18 176 88 18 174 87 18 171 86 17 167 84 17 163 82
16 159 80 16 154 77 15 149 75 15 144 72 14 138 69 14 132 66 13 126 63
12 120 60 12 113 57 11 106 53 10 98 49 9 90 45 9 82 41 8 73 37 7 63
32 6 53 27 5 42 21 3 30 15 3 26 13 3 26 13 3 26 13 3 26 13 115 115
115 114 114 114 114 114 114 114 114 114 113 113 113 113 113 113 113
113 113 112 112 112 112 112 112 112 112 112 112 112 112 111 111 111
111 111 111 111 111 111 110 110 110 110 110 110 110 110 110 110 110
110 109 109 109 109 109 109 109 109 109 108 108 108 108 108 108 108
108 108 107 107 107 107 107 107 107 107 107 106 106 106 106 106 106
106 106 106 106 106 106 105 105 105 105 105 105 105 105 105 104 104
104 104 104 104 104 104 104 103 103 103 103 103 103 103 103 103 103
103 103 102 102 102
132 132 132 132 132 132 132 132 132 132 132 132 131 131 131 131 131
131 131 131 131 131 131 131 131 131 131 131 131 131 131 131 131 131
131 131 131 131 131 130 130 130 130 130 130 130 130 130 130 130 130
130 130 130 130 130 130 129 129 129 129 129 129 129 129 129 129 129
129 129 129 129 129 129 129 128 128 128 17 161 81 17 170 85 18 172 86
18 173 87 18 172 86 18 171 86 17 168 84 17 165 83 17 162 81 16 158 79
16 154 77 15 149 75 15 144 72 14 139 70 14 133 67 13 127 64 13 121 61
12 115 58 11 108 54 11 101 51 10 93 47 9 85 43 8 77 39 7 68 34 6 58
29 5 48 24 4 37 19 3 26 13 3 26 13 3 26 13 3 26 13 3 26 13 120 120
120 120 120 120 119 119 119 119 119 119 119 119 119 118 118 118 118
118 118 118 118 118 117 117 117 117 117 117 117 117 117 117 117 117
116 116 116 116 116 116 116 116 116 115 115 115 115 115 115 115 115
115 114 114 114 114 114 114 114 114 114 113 113 113 113 113 113 113
113 113 113 113 113 112 112 112 112 112 112 112 112 112 111 111 111
111 111 111 111 111 111 110 110 110 110 110 110 110 110 110 109 109
109 109 109 109 109 109 109 108 108 108 108 108 108 108 108 108 108
108 108 107 107 107
138 138 138 138 138 138 137 137 137 137 137 137 137 137 137 137 137
137 137 137 137 137 137 137 137 137 137 137 137 137 136 136 136 136
136 136 136 136 136 136 136 136 136 136 136 136 136 136 135 135 135
135 135 135 135 135 135 135 135 135 135 135 135 134 134 134 134 134
134 134 134 134 134 134 134 134 134 134 16 152 76 17 163 82 17 166 83
17 167 84 17 166 83 17 165 83 17 162 81 16 160 80 16 156 78 16 152 76
15 148 74 15 143 72 14 139 70 14 133 67 13 128 64 13 122 61 12 116 58
11 109 55 11 102 51 10 95 48 9 88 44 8 80 40 8 71 36 7 62 31 6 53 27
5 42 21 4 31 16 3 26 13 3 26 13 3 26 13 3 26 13 3 26 13 125 125 125
124 124 124 124 124 124 124 124 124 123 123 123 123 123 123 123 123
123 122 122 122 122 122 122 122 122 122 121 121 121 121 121 121 121
121 121 121 121 121 120 120 120 120 120 120 120 120 120 78 155 16 79
158 16 78 155 16 74 148 15 69 137 14 61 121 13 47 94 10 117 117 117
117 117 117 116 116 116 116 116 116 116 116 116 115 115 115 115 115
115 115 115 115 115 115 115 114 114 114 114 114 114 114 114 114 113
113 113 113 113 113 113 113 113 112 112 112 112 112 112 112 112 112
143 143 143 143 143 143 143 143 143 142 142 142 142 142 142 142 142
142 142 142 142 142 142 142 142 142 142 141 141 141 141 141 141 141
141 141 141 141 141 141 141 141 140 140 140 140 140 140 140 140 140
140 140 140 140 140 140 139 139 139 139 139 139 139 139 139 139 139
139 138 138 138 138 138 138 138 138 138 15 141 71 16 155 78 16 159 80
16 160 80 16 160 80 16 158 79 16 156 78 16 153 77 15 150 75 15 146 73
15 142 71 14 138 69 14 133 67 13 128 64 13 122 61 12 116 58 11 110 55
11 103 52 10 97 49 9 89 45 9 82 41 8 74 37 7 65 33 6 56 28 5 47 24 4
36 18 3 26 13 3 26 13 3 26 13 3 26 13 3 26 13 3 26 13 129 129 129 128
128 128 128 128 128 128 128 128 127 127 127 127 127 127 127 127 127
126 126 126 126 126 126 126 126 126 126 126 126 125 125 125 125 125
125 125 125 125 124 124 124 86 172 18 90 180 18 91 182 19 90 180 18
88 175 18 84 168 17 79 158 16 73 146 15 66 131 14 56 111 12 40 79 8
120 120 120 120 120 120 120 120 120 119 119 119 119 119 119 119 119
119 119 119 119 118 118 118 118 118 118 118 118 118 117 117 117 117
117 117 117 117 117 116 116 116 116 116 116 116 116 116
147 147 147 147 147 147 147 147 147 147 147 147 146 146 146 146 146
146 146 146 146 146 146 146 146 146 146 146 146 146 145 145 145 145
145 145 145 145 145 145 145 145 144 144 144 144 144 144 144 144 144
144 144 144 144 144 144 143 143 143 143 143 143 143 143 143 143 143
143 142 142 142 142 142 142 142 142 142 142 142 142 15 146 73 16 151
76 16 153 77 16 153 77 16 152 76 15 150 75 15 147 74 15 144 72 14 140
70 14 136 68 14 131 66 13 127 64 13 121 61 12 116 58 11 110 55 11 104
52 10 97 49 10 91 46 9 83 42 8 76 38 7 68 34 6 59 30 5 50 25 4 40 20
3 30 15 3 26 13 3 26 13 3 26 13 3 26 13 3 26 13 133 133 133 132 132
132 132 132 132 132 132 132 131 131 131 131 131 131 131 131 131 130
130 130 130 130 130 130 130 130 129 129 129 129 129 129 129 129 129
128 128 128 76 152 16 92 183 19 96 192 20 97 194 20 97 193 20 95 190
19 92 184 19 89 177 18 84 168 17 79 157 16 72 144 15 64 128 13 54 108
11 40 79 8 124 124 124 123 123 123 123 123 123 123 123 123 122 122
122 122 122 122 122 122 122 121 121 121 121 121 121 121 121 121 121
121 121 120 120 120 120 120 120 120 120 120 119 119 119
151 151 151 151 151 151 151 151 151 150 150 150 150 150 150 150 150
150 150 150 150 150 150 150 149 149 149 149 149 149 149 149 149 149
149 149 148 148 148 148 148 148 148 148 148 148 148 148 147 147 147
147 147 147 147 147 147 147 147 147 146 146 146 146 146 146 146 146
146 146 146 146 145 145 145 145 145 145 145 145 145 14 134 67 15 142
71 15 145 73 15 145 73 15 144 72 15 143 72 14 140 70 14 137 69 14 133
67 13 129 65 13 125 63 12 120 60 12 115 58 11 109 55 11 104 52 10 97
49 10 91 46 9 84 42 8 77 39 7 69 35 7 61 31 6 52 26 5 43 22 4 33 17 3
26 13 3 26 13 3 26 13 3 26 13 3 26 13 3 26 13 136 136 136 135 135 135
135 135 135 135 135 135 135 135 135 134 134 134 134 134 134 134 134
134 133 133 133 133 133 133 133 133 133 132 132 132 132 132 132 132
132 132 93 185 19 98 196 20 100 200 20 101 201 21 100 199 20 98 195
20 95 189 19 91 182 19 87 173 18 82 163 17 75 150 15 68 136 14 60 119
12 49 97 10 34 68 7 127 127 127 126 126 126 126 126 126 126 126 126
125 125 125 125 125 125 125 125 125 124 124 124 124 124 124 124 124
124 123 123 123 123 123 123 123 123 123 123 123 123
154 154 154 154 154 154 154 154 154 153 153 153 153 153 153 153 153
153 153 153 153 153 153 153 152 152 152 152 152 152 152 152 152 152
152 152 151 151 151 151 151 151 151 151 151 151 151 151 150 150 150
150 150 150 150 150 150 150 150 150 149 149 149 149 149 149 149 149
149 149 149 149 148 148 148 148 148 148 148 148 148 12 118 59 14 132
66 14 136 68 14 137 69 14 136 68 14 135 68 14 132 66 13 130 65 13 126
63 13 122 61 12 118 59 12 113 57 11 108 54 11 103 52 10 97 49 10 91
46 9 84 42 8 77 39 7 70 35 7 62 31 6 54 27 5 45 23 4 36 18 3 26 13 3
26 13 3 26 13 3 26 13 3 26 13 3 26 13 3 26 13 139 139 139 138 138 138
138 138 138 138 138 138 137 137 137 137 137 137 137 137 137 136 136
136 136 136 136 136 136 136 135 135 135 135 135 135 135 135 135 90
179 18 98 195 20 101 201 21 102 204 21 102 203 21 101 201 21 99 197
20 96 191 20 92 184 19 88 175 18 83 165 17 77 153 16 70 140 14 62 124
13 53 105 11 41 82 9 24 47 5 129 129 129 129 129 129 129 129 129 128
128 128 128 128 128 128 128 128 127 127 127 127 127 127 127 127 127
126 126 126 126 126 126 126 126 126 125 125 125
157 157 157 157 157 157 156 156 156 156 156 156 156 156 156 156 156
156 156 156 156 155 155 155 155 155 155 155 155 155 155 155 155 154
154 154 154 154 154 154 154 154 154 154 154 153 153 153 153 153 153
153 153 153 153 153 153 152 152 152 152 152 152 152 152 152 151 151
151 151 151 151 151 151 151 151 151 151 150 150 150 150 150 150 12
119 60 13 125 63 13 127 64 13 127 64 13 126 63 13 124 62 13 122 61 12
118 59 12 115 58 11 110 55 11 106 53 11 101 51 10 95 48 9 89 45 9 83
42 8 77 39 7 70 35 7 62 31 6 54 27 5 46 23 4 37 19 3 28 14 3 26 13 3
26 13 3 26 13 3 26 13 3 26 13 3 26 13 141 141 141 141 141 141 141 141
141 141 141 141 140 140 140 140 140 140 26 26 26 26 26 26 26 26 26 26
26 26 26 26 26 26 26 26 26 26 26 79 158 16 94 187 19 99 198 20 102
203 21 102 204 21 102 203 21 101 201 21 98 196 20 95 190 19 92 183 19
88 175 18 83 165 17 77 154 16 71 141 15 63 126 13 55 109 11 44 88 9
30 60 6 13 26 3 131 131 131 131 131 131 131 131 131 131 131 131 130
130 130 130 130 130 130 130 130 129 129 129 129 129 129 129 129 129
128 128 128 128 128 128
159 159 159 159 159 159 159 159 159 159 159 159 158 158 158 158 158
158 158 158 158 158 158 158 157 157 157 157 157 157 157 157 157 157
157 157 156 156 156 156 156 156 156 156 156 156 156 156 155 155 155
155 155 155 155 155 155 155 155 155 154 154 154 154 154 154 154 154
154 153 153 153 153 153 153 153 153 153 153 153 153 152 152 152 10 98
49 12 113 57 12 117 59 12 118 59 12 117 59 12 116 58 12 113 57 11 110
55 11 106 53 11 102 51 10 98 49 10 93 47 9 87 44 9 81 41 8 75 38 7 69
35 7 62 31 6 54 27 5 46 23 4 38 19 3 29 15 3 26 13 3 26 13 3 26 13 3
26 13 3 26 13 3 26 13 3 26 13 26 26 26 26 26 26 26 26 26 26 26 26 26
26 26 26 26 26 26 26 26 26 26 26 26 26 26 26 26 26 26 26 26 26 26 26
26 26 26 85 170 17 95 189 19 99 198 20 101 202 21 102 203 21 101 201
21 105 204 26 100 197 23 94 188 19 91 181 19 87 173 18 82 163 17 76
152 16 70 140 14 63 126 13 55 109 11 45 89 9 33 65 7 15 29 3 134 134
134 134 134 134 133 133 133 133 133 133 133 133 133 132 132 132 132
132 132 132 132 132 131 131 131 131 131 131 131 131 131 131 131 131
161 161 161 161 161 161 161 161 161 161 161 161 160 160 160 160 160
160 160 160 160 160 160 160 159 159 159 159 159 159 159 159 159 159
159 159 158 158 158 158 158 158 158 158 158 158 158 158 157 157 157
157 157 157 158 126 16 149 120 15 133 106 14 111 89 12 78 63 8 155
155 155 155 155 155 155 155 155 155 155 155 154 154 154 154 154 154
10 95 48 11 104 52 11 106 53 11 107 54 11 106 53 11 104 52 11 101 51
10 97 49 10 93 47 9 89 45 9 84 42 8 79 40 8 73 37 7 67 34 6 60 30 6
53 27 5 45 23 4 37 19 3 29 15 3 26 13 3 26 13 3 26 13 3 26 13 3 26 13
3 26 13 3 26 13 26 26 26 26 26 26 26 26 26 26 26 26 26 26 26 26 26 26
26 26 26 26 26 26 26 26 26 26 26 26 26 26 26 26 26 26 26 26 26 26 26
26 86 171 18 94 187 19 98 195 20 99 198 20 100 199 20 99 198 20 128
225 51 103 198 27 92 184 19 89 177 18 85 169 17 80 160 16 75 149 15
69 137 14 62 123 13 54 107 11 44 88 9 33 65 7 17 34 4 136 136 136 136
136 136 135 135 135 135 135 135 135 135 135 135 135 135 134 134 134
134 134 134 134 134 134 133 133 133 133 133 133 133 133 133
163 163 163 163 163 163 163 163 163 162 162 162 162 162 162 162 162
162 162 162 162 161 161 161 161 161 161 161 161 161 161 161 161 160
160 160 160 160 160 160 160 160 160 160 160 159 159 159 188 150 19
186 149 19 175 140 18 161 129 17 143 115 15 123 98 13 99 79 10 70 56
7 26 21 3 157 157 157 156 156 156 156 156 156 156 156 156 155 155 155
9 87 44 10 93 47 10 95 48 10 95 48 10 93 47 10 91 46 9 88 44 9 84 42
8 80 40 8 75 38 7 69 35 7 64 32 6 57 29 6 51 26 5 44 22 4 36 18 3 28
14 3 26 13 3 26 13 3 26 13 3 26 13 3 26 13 3 26 13 3 26 13 26 26 26
26 26 26 26 26 26 26 26 26 26 26 26 26 26 26 26 26 26 26 26 26 26 26
26 26 26 26 26 26 26 26 26 26 26 26 26 26 26 26 26 26 26 84 167 17 91
182 19 95 190 19 97 193 20 97 194 20 96 192 20 95 189 19 93 185 19 90
179 18 86 172 18 82 164 17 78 155 16 72 144 15 66 132 14 60 119 12 52
103 11 43 85 9 32 63 7 17 34 4 138 138 138 138 138 138 137 137 137
137 137 137 137 137 137 137 137 137 136 136 136 136 136 136 136 136
136 135 135 135 135 135 135 135 135 135
165 165 165 165 165 165 164 164 164 164 164 164 164 164 164 164 164
164 163 163 163 163 163 163 163 163 163 162 162 162 162 162 162 162
162 162 162 162 162 161 161 161 161 161 161 200 160 20 198 159 20 189
151 19 176 141 18 161 129 17 143 115 15 124 99 13 101 81 11 75 60 8
44 35 5 26 21 3 158 158 158 158 158 158 157 157 157 157 157 157 157
157 157 8 75 38 8 80 40 9 82 41 9 81 41 8 79 40 8 77 39 8 73 37 7 69
35 7 64 32 6 59 30 6 53 27 5 47 24 4 40 20 4 33 17 3 26 13 3 26 13 3
26 13 3 26 13 3 26 13 3 26 13 3 26 13 3 26 13 26 26 26 26 26 26 26 26
26 26 26 26 26 26 26 26 26 26 26 26 26 26 26 26 26 26 26 26 26 26 26
26 26 26 26 26 26 26 26 26 26 26 26 26 26 26 26 26 80 160 16 88 175
18 91 182 19 93 186 19 94 187 19 93 185 19 91 182 19 89 178 18 86 172
18 83 166 17 79 158 16 74 148 15 69 138 14 63 126 13 57 113 12 49 97
10 40 79 8 29 58 6 15 30 3 13 26 3 140 140 140 139 139 139 139 139
139 139 139 139 138 138 138 138 138 138 138 138 138 138 138 138 137
137 137 137 137 137 137 137 137
166 166 166 166 166 166 166 166 166 165 165 165 165 165 165 165 165
165 165 165 165 164 164 164 164 164 164 164 164 164 164 164 164 163
163 163 163 163 163 163 163 163 200 160 20 204 163 21 197 158 20 186
149 19 173 138 18 157 126 16 139 112 14 120 96 12 98 78 10 73 59 8 45
36 5 26 21 3 159 159 159 159 159 159 159 159 159 158 158 158 158 158
158 158 158 158 6 60 30 7 65 33 7 67 34 7 66 33 7 64 32 7 61 31 6 57
29 6 53 27 5 48 24 5 42 21 4 36 18 3 29 15 3 26 13 3 26 13 3 26 13 3
26 13 3 26 13 3 26 13 3 26 13 3 26 13 26 26 26 26 26 26 26 26 26 26
26 26 26 26 26 26 26 26 26 26 26 26 26 26 26 26 26 26 26 26 26 26 26
26 26 26 26 26 26 26 26 26 26 26 26 26 26 26 26 26 26 75 149 15 83
165 17 87 173 18 89 177 18 89 178 18 89 177 18 87 174 18 85 170 17 83
165 17 79 158 16 75 150 15 71 141 15 65 130 13 60 119 12 53 105 11 45
90 9 36 72 8 25 50 5 13 26 3 13 26 3 141 141 141 141 141 141 141 141
141 140 140 140 140 140 140 140 140 140 140 140 140 139 139 139 139
139 139 139 139 139 138 138 138
167 167 167 167 167 167 167 167 167 167 167 167 166 166 166 166 166
166 166 166 166 166 166 166 165 165 165 165 165 165 165 165 165 165
165 165 164 164 164 164 164 164 203 162 21 200 160 20 191 153 20 194
158 32 166 133 17 150 120 15 133 106 14 113 91 12 91 73 10 67 54 7 40
32 4 26 21 3 26 21 3 160 160 160 160 160 160 160 160 160 159 159 159
159 159 159 159 159 159 4 39 20 5 48 24 5 49 25 5 49 25 5 47 24 5 43
22 4 39 20 4 34 17 3 29 15 3 26 13 3 26 13 3 26 13 3 26 13 3 26 13 3
26 13 3 26 13 3 26 13 3 26 13 26 26 26 26 26 26 26 26 26 26 26 26 26
26 26 26 26 26 26 26 26 26 26 26 26 26 26 26 26 26 26 26 26 26 26 26
26 26 26 26 26 26 26 26 26 26 26 26 26 26 26 26 26 26 67 133 14 77
153 16 81 162 17 83 166 17 84 168 17 84 167 17 83 165 17 81 161 17 78
155 16 75 149 15 71 141 15 66 132 14 61 121 13 55 110 11 48 96 10 41
81 9 31 62 7 20 40 4 13 26 3 143 143 143 143 143 143 143 143 143 142
142 142 142 142 142 142 142 142 141 141 141 141 141 141 141 141 141
141 141 141 140 140 140 140 140 140
168 168 168 168 168 168 168 168 168 168 168 168 167 167 167 167 167
167 167 167 167 167 167 167 166 166 166 166 166 166 166 166 166 166
166 166 165 165 165 189 151 19 197 158 20 192 154 20 183 147 19 174
140 20 157 126 16 141 113 15 124 99 13 104 83 11 83 66 9 59 47 6 32
26 4 26 21 3 26 21 3 161 161 161 161 161 161 161 161 161 161 161 161
160 160 160 160 160 160 160 160 160 159 159 159 3 26 13 3 28 14 3 28
14 3 26 13 3 26 13 3 26 13 3 26 13 3 26 13 3 26 13 3 26 13 3 26 13 3
26 13 3 26 13 3 26 13 26 26 26 26 26 26 26 26 26 26 26 26 26 26 26 26
26 26 26 26 26 26 26 26 26 26 26 26 26 26 26 26 26 26 26 26 26 26 26
26 26 26 26 26 26 26 26 26 26 26 26 26 26 26 26 26 26 150 150 150 55
109 11 69 137 14 74 148 15 77 154 16 78 156 16 78 155 16 77 153 16 75
150 15 72 144 15 69 138 14 65 130 13 61 121 13 56 111 12 50 99 10 43
85 9 35 69 7 26 51 6 14 28 3 13 26 3 26 26 26 26 26 26 144 144 144
144 144 144 143 143 143 143 143 143 143 143 143 143 143 143 142 142
142 142 142 142 142 142 142 142 142 142
169 169 169 169 169 169 169 169 169 169 169 169 168 168 168 168 168
168 168 168 168 168 168 168 167 167 167 167 167 167 167 167 167 167
167 167 166 166 166 184 147 19 188 150 19 182 146 19 173 138 18 161
129 17 146 117 15 130 104 13 113 90 12 93 75 10 72 57 8 48 38 5 26 21
3 26 21 3 26 21 3 162 162 162 162 162 162 162 162 162 162 162 162 161
161 161 161 161 161 161 161 161 161 161 161 160 160 160 160 160 160
26 26 26 3 26 13 3 26 13 3 26 13 3 26 13 3 26 13 3 26 13 3 26 13 3 26
13 26 26 26 26 26 26 26 26 26 26 26 26 26 26 26 26 26 26 26 26 26 26
26 26 26 26 26 26 26 26 26 26 26 26 26 26 26 26 26 26 26 26 26 26 26
26 26 26 26 26 26 153 153 153 152 152 152 152 152 152 152 152 152 152
152 152 151 151 151 151 151 151 58 116 12 66 131 14 69 138 14 71 142
15 71 142 15 70 140 14 69 137 14 66 132 14 63 126 13 59 118 12 55 109
11 49 98 10 43 86 9 36 72 8 28 56 6 18 36 4 13 26 3 13 26 3 26 26 26
26 26 26 26 26 26 26 26 26 26 26 26 26 26 26 26 26 26 144 144 144 144
144 144 143 143 143 143 143 143 143 143 143
170 170 170 170 170 170 170 170 170 170 170 170 169 169 169 169 169
169 169 169 169 169 169 169 168 168 168 168 168 168 168 168 168 168
168 168 167 167 167 172 138 18 176 141 18 170 136 17 160 128 16 148
119 15 134 107 14 118 94 12 100 80 10 80 64 8 59 47 6 35 28 4 26 21 3
26 21 3 26 21 3 163 163 163 163 163 163 163 163 163 163 163 163 162
162 162 162 162 162 162 162 162 161 161 161 161 161 161 161 161 161
161 161 161 26 26 26 26 26 26 26 26 26 26 26 26 26 26 26 26 26 26 26
26 26 26 26 26 26 26 26 26 26 26 26 26 26 26 26 26 26 26 26 26 26 26
26 26 26 26 26 26 26 26 26 26 26 26 26 26 26 26 26 26 155 155 155 155
155 155 155 155 155 154 154 154 154 154 154 154 154 154 153 153 153
153 153 153 153 153 153 153 153 153 152 152 152 152 152 152 40 80 8
55 109 11 60 120 12 63 125 13 63 126 13 63 125 13 61 122 13 59 117 12
56 111 12 52 104 11 48 95 10 42 84 9 36 72 8 29 57 6 20 40 4 13 26 3
13 26 3 26 26 26 26 26 26 26 26 26 26 26 26 26 26 26 26 26 26 26 26
26 26 26 26 26 26 26 26 26 26 145 145 145 144 144 144 144 144 144
171 171 171 171 171 171 171 171 171 170 170 170 170 170 170 170 170
170 170 170 170 169 169 169 169 169 169 169 169 169 169 169 169 168
168 168 168 168 168 153 123 16 160 128 16 155 124 16 146 117 15 134
107 14 119 96 12 103 83 11 86 69 9 66 53 7 44 35 5 26 21 3 26 21 3 26
21 3 26 21 3 164 164 164 164 164 164 164 164 164 163 163 163 163 163
163 163 163 163 26 26 26 162 162 162 162 162 162 162 162 162 162 162
162 161 161 161 161 161 161 161 161 161 161 161 161 160 160 160 160
160 160 160 160 160 159 159 159 159 159 159 159 159 159 159 159 159
158 158 158 158 158 158 158 158 158 158 158 158 157 157 157 157 157
157 157 157 157 157 157 157 156 156 156 156 156 156 156 156 156 156
156 156 155 155 155 155 155 155 155 155 155 154 154 154 154 154 154
154 154 154 154 154 154 153 153 153 153 153 153 153 153 153 38 75 8
48 95 10 52 104 11 54 107 11 54 107 11 53 105 11 51 101 11 48 95 10
44 87 9 39 78 8 34 67 7 27 54 6 20 39 4 13 26 3 13 26 3 13 26 3 26 26
26 26 26 26 26 26 26 26 26 26 26 26 26 26 26 26 26 26 26 26 26 26 26
26 26 26 26 26 146 146 146 146 146 146 145 145 145
172 172 172 171 171 171 171 171 171 171 171 171 171 171 171 171 171
171 170 170 170 170 170 170 170 170 170 170 170 170 169 169 169 169
169 169 169 169 169 169 169 169 141 113 15 138 110 14 129 103 13 117
94 12 103 83 11 87 70 9 69 55 7 49 39 5 27 21 3 26 21 3 26 21 3 26 21
3 26 26 26 26 26 26 26 26 26 26 26 26 26 26 26 26 26 26 26 26 26 26
26 26 26 26 26 26 26 26 26 26 26 162 162 162 162 162 162 162 162 162
162 162 162 161 161 161 161 161 161 161 161 161 161 161 161 160 160
160 160 160 160 160 160 160 160 160 160 159 159 159 159 159 159 159
159 159 159 159 159 158 158 158 158 158 158 158 158 158 157 157 157
157 157 157 157 157 157 157 157 157 156 156 156 156 156 156 156 156
156 156 156 156 155 155 155 155 155 155 155 155 155 155 155 155 154
154 154 154 154 154 154 154 154 154 154 154 28 56 6 38 75 8 41 82 9
43 85 9 42 84 9 40 80 8 38 75 8 34 67 7 29 58 6 23 46 5 16 32 4 13 26
3 13 26 3 13 26 3 26 26 26 26 26 26 26 26 26 26 26 26 26 26 26 26 26
26 26 26 26 26 26 26 26 26 26 26 26 26 26 26 26 147 147 147 147 147
147 147 147 147
172 172 172 172 172 172 172 172 172 172 172 172 171 171 171 171 171
171 171 171 171 171 171 171 170 170 170 170 170 170 170 170 170 170
170 170 169 169 169 169 169 169 114 92 12 116 93 12 109 87 11 98 78
10 84 67 9 68 55 7 50 40 5 29 24 3 26 21 3 26 21 3 26 21 3 26 21 3 26
26 26 26 26 26 26 26 26 26 26 26 26 26 26 26 26 26 26 26 26 26 26 26
26 26 26 26 26 26 163 163 163 163 163 163 163 163 163 163 163 163 162
162 162 162 162 162 162 162 162 162 162 162 161 161 161 161 161 161
161 161 161 161 161 161 160 160 160 160 160 160 160 160 160 160 160
160 159 159 159 159 159 159 159 159 159 159 159 159 158 158 158 158
158 158 158 158 158 158 158 158 157 157 157 157 157 157 157 157 157
157 157 157 156 156 156 156 156 156 156 156 156 156 156 156 155 155
155 155 155 155 155 155 155 155 155 155 154 154 154 154 154 154 24 47
5 27 54 6 28 56 6 27 54 6 25 49 5 21 42 5 16 32 4 13 26 3 13 26 3 13
26 3 26 26 26 26 26 26 26 26 26 26 26 26 26 26 26 26 26 26 26 26 26
26 26 26 26 26 26 26 26 26 26 26 26 149 149 149 148 148 148 148 148
148 148 148 148 148 148 148
173 173 173 173 173 173 172 172 172 172 172 172 172 172 172 172 172
172 171 171 171 171 171 171 171 171 171 171 171 171 171 171 171 170
170 170 170 170 170 170 170 170 170 170 170 87 69 9 84 67 9 75 60 8
61 49 7 46 37 5 27 22 3 26 21 3 26 21 3 26 21 3 26 21 3 26 26 26 26
26 26 26 26 26 26 26 26 26 26 26 26 26 26 26 26 26 26 26 26 26 26 26
165 165 165 164 164 164 164 164 164 164 164 164 164 164 164 163 163
163 163 163 163 163 163 163 163 163 163 162 162 162 162 162 162 162
162 162 162 162 162 161 161 161 161 161 161 161 161 161 161 161 161
160 160 160 160 160 160 160 160 160 160 160 160 159 159 159 159 159
159 159 159 159 159 159 159 158 158 158 158 158 158 158 158 158 158
158 158 157 157 157 157 157 157 157 157 157 157 157 157 156 156 156
156 156 156 156 156 156 156 156 156 155 155 155 155 155 155 155 155
155 155 155 155 26 26 26 13 26 3 13 26 3 13 26 3 13 26 3 13 26 3 13
26 3 26 26 26 26 26 26 26 26 26 26 26 26 26 26 26 26 26 26 26 26 26
26 26 26 26 26 26 26 26 26 26 26 26 150 150 150 150 150 150 150 150
150 149 149 149 149 149 149 149 149 149 149 149 149
173 173 173 173 173 173 173 173 173 173 173 173 172 172 172 172 172
172 172 172 172 172 172 172 172 172 172 171 171 171 171 171 171 171
171 171 171 171 171 170 170 170 170 170 170 170 170 170 45 36 5 43 35
5 32 26 4 26 21 3 26 21 3 26 21 3 26 21 3 26 26 26 26 26 26 26 26 26
26 26 26 26 26 26 26 26 26 26 26 26 26 26 26 166 166 166 166 166 166
165 165 165 165 165 165 165 165 165 165 165 165 164 164 164 164 164
164 164 164 164 164 164 164 164 164 164 163 163 163 163 163 163 163
163 163 163 163 163 162 162 162 162 162 162 162 162 162 162 162 162
161 161 161 161 161 161 161 161 161 161 161 161 160 160 160 160 160
160 160 160 160 160 160 160 159 159 159 159 159 159 159 159 159 159
159 159 158 158 158 158 158 158 158 158 158 158 158 158 157 157 157
157 157 157 157 157 157 157 157 157 156 156 156 156 156 156 156 156
156 156 156 156 155 155 155 155 155 155 155 155 155 155 155 155 26 26
26 26 26 26 26 26 26 26 26 26 26 26 26 26 26 26 26 26 26 26 26 26 26
26 26 26 26 26 152 152 152 152 152 152 152 152 152 151 151 151 151
151 151 151 151 151 151 151 151 151 151 151 150 150 150 150 150 150
150 150 150 150 150 150
174 174 174 174 174 174 173 173 173 173 173 173 173 173 173 173 173
173 172 172 172 172 172 172 172 172 172 172 172 172 172 172 172 171
171 171 171 171 171 171 171 171 171 171 171 170 170 170 170 170 170
170 170 170 26 26 26 26 26 26 26 26 26 26 26 26 26 26 26 26 26 26 26
26 26 26 26 26 26 26 26 167 167 167 167 167 167 167 167 167 167 167
167 167 167 167 166 166 166 166 166 166 166 166 166 166 166 166 165
165 165 165 165 165 165 165 165 165 165 165 164 164 164 164 164 164
164 164 164 164 164 164 163 163 163 163 163 163 163 163 163 163 163
163 162 162 162 162 162 162 162 162 162 162 162 162 161 161 161 161
161 161 161 161 161 161 161 161 161 161 161 160 160 160 160 160 160
160 160 160 160 160 160 159 159 159 159 159 159 159 159 159 159 159
159 158 158 158 158 158 158 158 158 158 158 158 158 157 157 157 157
157 157 157 157 157 157 157 157 157 157 157 156 156 156 156 156 156
156 156 156 156 156 156 155 155 155 155 155 155 155 155 155 155 155
155 154 154 154 154 154 154 154 154 154 154 154 154 153 153 153 153
153 153 153 153 153 153 153 153 153 153 153 152 152 152 152 152 152
152 152 152 152 152 152 151 151 151 151 151 151 151 151 151 151 151
151 150 150 150
174 174 174 174 174 174 174 174 174 174 174 174 173 173 173 173 173
173 173 173 173 173 173 173 172 172 172 172 172 172 172 172 172 172
172 172 172 172 172 171 171 171 171 171 171 171 171 171 171 171 171
170 170 170 170 170 170 170 170 170 170 170 170 169 169 169 169 169
169 169 169 169 169 169 169 168 168 168 168 168 168 168 168 168 168
168 168 168 168 168 167 167 167 167 167 167 167 167 167 167 167 167
166 166 166 166 166 166 166 166 166 166 166 166 165 165 165 165 165
165 165 165 165 165 165 165 164 164 164 164 164 164 164 164 164 164
164 164 164 164 164 163 163 163 163 163 163 163 163 163 163 163 163
162 162 162 162 162 162 162 162 162 162 162 162 161 161 161 161 161
161 161 161 161 161 161 161 160 160 160 160 160 160 160 160 160 160
160 160 160 160 160 159 159 159 159 159 159 159 159 159 159 159 159
158 158 158 158 158 158 158 158 158 158 158 158 157 157 157 157 157
157 157 157 157 157 157 157 157 157 157 156 156 156 156 156 156 156
156 156 156 156 156 155 155 155 155 155 155 155 155 155 155 155 155
154 154 154 154 154 154 154 154 154 154 154 154 154 154 154 153 153
153 153 153 153 153 153 153 153 153 153 152 152 152 152 152 152 152
152 152 152 152 152 152 152 152 151 151 151
175 175 175 174 174 174 174 174 174 174 174 174 174 174 174 174 174
174 173 173 173 173 173 173 173 173 173 173 173 173 172 172 172 172
172 172 172 172 172 172 172 172 171 171 171 171 171 171 171 171 171
171 171 171 171 171 171 170 170 170 170 170 170 170 170 170 170 170
170 169 169 169 169 169 169 169 169 169 169 169 169 168 168 168 168
168 168 168 168 168 168 168 168 168 168 168 167 167 167 167 167 167
167 167 167 167 167 167 166 166 166 166 166 166 166 166 166 166 166
166 165 165 165 165 165 165 165 165 165 165 165 165 165 165 165 164
164 164 164 164 164 164 164 164 164 164 164 163 163 163 163 163 163
163 163 163 163 163 163 162 162 162 162 162 162 162 162 162 162 162
162 162 162 162 161 161 161 161 161 161 161 161 161 161 161 161 160
160 160 160 160 160 160 160 160 160 160 160 159 159 159 159 159 159
159 159 159 159 159 159 159 159 159 158 158 158 158 158 158 158 158
158 158 158 158 157 157 157 157 157 157 157 157 157 157 157 157 157
157 157 156 156 156 156 156 156 156 156 156 156 156 156 155 155 155
155 155 155 155 155 155 155 155 155 155 155 155 154 154 154 154 154
154 154 154 154 154 154 154 153 153 153 153 153 153 153 153 153 153
153 153 153 153 153 152 152 152 152 152 152
175 175 175 175 175 175 175 175 175 174 174 174 174 174 174 174 174
174 174 174 174 173 173 173 173 173 173 173 173 173 173 173 173 173
173 173 172 172 172 172 172 172 172 172 172 172 172 172 171 171 171
171 171 171 171 171 171 171 171 171 171 171 171 170 170 170 170 170
170 170 170 170 170 170 170 169 169 169 169 169 169 169 169 169 169
169 169 168 168 168 168 168 168 168 168 168 168 168 168 168 168 168
167 167 167 167 167 167 167 167 167 167 167 167 166 166 166 166 166
166 166 166 166 166 166 166 166 166 166 165 165 165 165 165 165 165
165 165 165 165 165 164 164 164 164 164 164 164 164 164 164 164 164
163 163 163 163 163 163 163 163 163 163 163 163 163 163 163 162 162
162 162 162 162 162 162 162 162 162 162 161 161 161 161 161 161 161
161 161 161 161 161 161 161 161 160 160 160 160 160 160 160 160 160
160 160 160 159 159 159 159 159 159 159 159 159 159 159 159 159 159
159 158 158 158 158 158 158 158 158 158 158 158 158 157 157 157 157
157 157 157 157 157 157 157 157 157 157 157 156 156 156 156 156 156
156 156 156 156 156 156 155 155 155 155 155 155 155 155 155 155 155
155 155 155 155 154 154 154 154 154 154 154 154 154 154 154 154 153
153 153 153 153 153 153 153 153 153 153 153
